<svg width="20" height="21" viewBox="0 0 20 21" fill="none" xmlns="http://www.w3.org/2000/svg">
<path d="M8.67775 17.5157C8.6754 17.5157 8.67267 17.5157 8.67033 17.5157C8.57345 17.5136 8.48204 17.4702 8.41642 17.3955L1.71876 9.74856C1.60392 9.61731 1.59337 9.41962 1.69376 9.27565C1.79415 9.1321 1.97697 9.08288 2.13087 9.15835L8.26095 12.1722C8.31251 12.1976 8.37345 12.1853 8.4129 12.1422L17.7637 1.88054C17.8902 1.74149 18.0973 1.72632 18.241 1.84608C18.3848 1.96585 18.418 2.18077 18.3176 2.34196L9.01603 17.3036C9.00275 17.3254 8.98712 17.3451 8.96993 17.3635L8.92892 17.4066C8.86212 17.4763 8.7715 17.5157 8.67775 17.5157Z" fill="#00A9E2"/>
</svg>
