<svg width="32" height="32" viewBox="0 0 32 32" fill="none" xmlns="http://www.w3.org/2000/svg">
<g clip-path="url(#clip0_465_11943)">
<path d="M20.4968 12.2892C20.1432 12.2892 19.7679 12.0163 19.6584 11.6801L16.1979 1.03023C16.0884 0.693943 15.9116 0.693943 15.8021 1.03023L12.3422 11.6801C12.2327 12.0164 11.8574 12.2892 11.5038 12.2892H0.305709C-0.0478376 12.2892 -0.102914 12.4576 0.183342 12.6658L9.24231 19.2467C9.52856 19.4549 9.67205 19.8961 9.56252 20.2324L6.1027 30.8817C5.99318 31.218 6.13666 31.3223 6.42292 31.1142L15.4819 24.5333C15.7681 24.3251 16.2319 24.3251 16.5182 24.5333L25.5771 31.1148C25.8634 31.323 26.0069 31.2186 25.8974 30.8823L22.4375 20.2331C22.3279 19.8968 22.4714 19.4555 22.7577 19.2474L31.8166 12.6665C32.1029 12.4583 32.0478 12.2898 31.6943 12.2898H20.4968V12.2892Z" fill="#FCB720"/>
</g>
<defs>
<clipPath id="clip0_465_11943">
<rect width="32" height="32" fill="white"/>
</clipPath>
</defs>
</svg>
