<?xml version="1.0" encoding="UTF-8"?> <svg xmlns="http://www.w3.org/2000/svg" width="47" height="54" viewBox="0 0 47 54" fill="none"><g clip-path="url(#clip0_465_12053)"><path d="M29.7939 31.5088C29.7939 34.8319 26.9733 37.5275 23.5015 37.5275C20.0296 37.5275 17.209 34.8319 17.209 31.5088C17.209 31.3908 17.2134 31.2687 17.2222 31.1508C17.7018 31.3824 18.2475 31.5088 18.8195 31.5088C20.8261 31.5088 22.4542 29.9504 22.4542 28.0298C22.4542 27.1664 22.1242 26.3788 21.5785 25.7722C22.1814 25.5869 22.8282 25.4858 23.5015 25.4858C26.9733 25.4858 29.7939 28.1814 29.7939 31.5088Z" fill="white"></path><path d="M23.5022 9.01319C23.4142 9.01319 23.3262 9.01319 23.2382 9.0174C10.3804 9.15218 -1.77551e-06 19.1679 -3.93323e-06 31.5086C-4.8567e-06 36.7903 1.90094 41.6423 5.08238 45.4793L13.9359 38.5045C12.3825 36.5628 11.4629 34.1368 11.4629 31.5086C11.4629 25.1403 16.8533 19.9808 23.5022 19.9808L32.9346 19.9808L32.9346 9.01319L23.5022 9.01319Z" fill="#00A9E2"></path><path d="M35.5413 9.01334L35.5413 31.5088C35.5413 37.8729 30.1509 43.0324 23.502 43.0324C20.5494 43.0324 17.8432 42.0131 15.7442 40.3199L6.8203 47.3495C11.0754 51.456 16.9763 54 23.502 54C36.4786 54 46.9998 43.9295 46.9998 31.5088L46.9998 7.0252e-06L35.5413 9.01334Z" fill="white"></path></g><defs><clipPath id="clip0_465_12053"><rect width="47" height="54" fill="white"></rect></clipPath></defs></svg> 