<?xml version="1.0" encoding="UTF-8"?> <svg xmlns="http://www.w3.org/2000/svg" width="60" height="70" viewBox="0 0 60 70" fill="none"><g clip-path="url(#clip0_41_3718)"><path d="M38.0358 40.8446C38.0358 45.1524 34.435 48.6467 30.0028 48.6467C25.5706 48.6467 21.9698 45.1524 21.9698 40.8446C21.9698 40.6917 21.9755 40.5334 21.9867 40.3805C22.599 40.6808 23.2956 40.8446 24.0258 40.8446C26.5874 40.8446 28.6658 38.8245 28.6659 36.3348C28.6659 35.2156 28.2445 34.1946 27.548 33.4084C28.3176 33.1681 29.1433 33.0371 30.0028 33.0371C34.435 33.0371 38.0358 36.5314 38.0358 40.8446Z" fill="#303030"></path><path d="M30.0028 11.6841C29.8905 11.6841 29.7781 11.6841 29.6658 11.6895C13.2516 11.8643 -2.30159e-06 24.8476 -5.09863e-06 40.8448C-6.29572e-06 47.6914 2.42673 53.9811 6.48815 58.955L17.7905 49.9136C15.8075 47.3966 14.6335 44.2517 14.6335 40.8448C14.6335 32.5896 21.5148 25.9014 30.0028 25.9014L42.0442 25.9014L42.0442 11.6841L30.0028 11.6841Z" fill="#00A9E2"></path><path d="M45.3721 11.684L45.3721 40.8447C45.3721 49.0945 38.4908 55.7827 30.0028 55.7827C26.2335 55.7827 22.7787 54.4614 20.0992 52.2666L8.70702 61.379C14.1391 66.7023 21.6721 70 30.0028 70C46.5687 70 60 56.9456 60 40.8447L60 8.96835e-06L45.3721 11.684Z" fill="#231B64"></path></g><defs><clipPath id="clip0_41_3718"><rect width="60" height="70" fill="white"></rect></clipPath></defs></svg> 